# xmcd
#
# Track frame offsets: 
#        150
#        14032
#        26059
#        37732
#        51285
#        68552
#        86620
#        103848
#        121142
#        139242
#        160671
#        178756
#        196445
#        215115
#        235520
#        251425
#
# Disc length: 3600 seconds
#
# Revision: 1
# Processed by: cddbd v1.5.2PL0 Copyright (c) Steve Scherf et al.
# Submitted via: ExactAudioCopyFreeDBPlugin 1.0
#
DISCID=db0e0e10
DTITLE=Lester Young - Swing Time 078 - Lester Young 06 - 1946
DYEAR=1946
DGENRE=Jazz
TTITLE0=Lester Young And His Band - It's Only A Paper Moon
TTITLE1=Lester Young And His Band - After You've Gone
TTITLE2=Lester Young And His Band - Lover Come Back To Me
TTITLE3=Lester Young And His Band - Jamming With Lester
TTITLE4=Lester Young - Buddy Rich Trio - Back To The Land
TTITLE5=Lester Young - Buddy Rich Trio - I Cover The Waterfront
TTITLE6=Lester Young - Buddy Rich Trio - I Cover The Waterfront
TTITLE7=Lester Young - Buddy Rich Trio - Somebody Loves Me
TTITLE8=Lester Young - Buddy Rich Trio - I've Found A New Baby
TTITLE9=Lester Young - Buddy Rich Trio - The Man I Love
TTITLE10=Lester Young - Buddy Rich Trio - Peg O'my Heart
TTITLE11=Lester Young - Buddy Rich Trio - I Want To Be Happy
TTITLE12=Lester Young - Buddy Rich Trio - Mean To Me
TTITLE13=Lester Young-Nat 'king' Cole - These Foolish Things
TTITLE14=Lester Young-Nat 'king' Cole - Lester Leaps In
TTITLE15=Lester Young Quartet - D.B. Blues
EXTD=YEAR: 2006
EXTT0=
EXTT1=
EXTT2=
EXTT3=
EXTT4=
EXTT5=
EXTT6=
EXTT7=
EXTT8=
EXTT9=
EXTT10=
EXTT11=
EXTT12=
EXTT13=
EXTT14=
EXTT15=
PLAYORDER=
